<svg id="svg" version="1.1" xmlns="http://www.w3.org/2000/svg" xmlns:xlink="http://www.w3.org/1999/xlink" width="400" height="400" viewBox="0, 0, 400,400"><g id="svgg"><path id="path0" d="M143.599 20.800 C 143.153 22.182,143.239 23.160,143.787 22.950 C 144.333 22.740,144.399 25.114,144.394 44.657 C 144.390 58.972,144.253 66.391,144.000 66.000 C 143.687 65.516,143.611 65.577,143.606 66.313 L 143.600 67.226 127.438 67.113 C 118.549 67.051,111.359 67.135,111.462 67.300 C 111.564 67.465,111.541 67.600,111.411 67.600 C 111.281 67.600,111.014 67.195,110.819 66.700 C 110.598 66.141,110.457 70.121,110.446 77.200 L 110.430 88.600 99.587 88.706 C 93.624 88.765,88.839 88.660,88.955 88.473 C 89.070 88.286,88.933 88.133,88.649 88.133 C 88.365 88.133,88.133 88.365,88.133 88.649 C 88.133 88.933,88.286 89.070,88.473 88.955 C 88.660 88.839,88.765 93.624,88.706 99.587 L 88.600 110.430 77.200 110.446 C 70.121 110.457,66.141 110.598,66.700 110.819 C 67.195 111.014,67.600 111.281,67.600 111.411 C 67.600 111.541,67.465 111.564,67.300 111.462 C 67.135 111.360,67.048 128.472,67.106 149.490 C 67.184 177.593,67.092 187.849,66.757 188.252 C 66.382 188.704,62.514 188.800,44.751 188.800 L 23.200 188.800 23.132 128.500 C 23.095 95.335,23.084 67.705,23.108 67.100 C 23.132 66.495,22.982 66.000,22.776 66.000 C 22.569 66.000,22.397 66.225,22.394 66.500 C 22.389 66.877,22.305 66.870,22.052 66.470 C 21.779 66.041,21.598 66.059,21.087 66.570 C 20.547 67.110,19.001 67.200,10.229 67.200 L 0.000 67.200 0.000 128.187 L 0.000 189.174 10.600 189.287 C 17.396 189.360,21.261 189.256,21.369 189.000 C 21.461 188.780,21.551 193.490,21.568 199.467 C 21.593 207.810,21.484 210.380,21.100 210.535 C 20.790 210.660,20.855 210.749,21.271 210.768 C 21.641 210.786,22.226 211.083,22.571 211.429 C 22.917 211.774,23.200 211.864,23.200 211.629 C 23.200 210.897,65.898 211.041,66.633 211.775 C 67.287 212.430,67.316 287.451,66.662 289.000 C 66.477 289.440,66.477 289.614,66.662 289.387 C 66.848 289.159,67.225 289.002,67.500 289.037 C 67.775 289.071,77.585 289.123,89.300 289.150 L 110.600 289.200 110.600 316.800 L 110.600 344.400 89.300 344.400 C 70.253 344.400,68.000 344.334,68.000 343.775 C 68.000 342.885,66.323 343.197,65.714 344.200 C 64.995 345.385,65.097 345.683,66.048 345.174 C 66.644 344.855,66.816 344.851,66.625 345.160 C 66.475 345.402,66.546 345.600,66.783 345.600 C 67.241 345.600,67.223 387.628,66.766 388.800 C 66.637 389.130,66.591 389.310,66.665 389.200 C 66.739 389.090,70.804 389.045,75.700 389.100 C 109.857 389.486,111.841 389.458,111.905 388.605 C 111.953 387.961,111.893 387.923,111.588 388.405 C 111.351 388.781,111.210 381.008,111.206 367.300 C 111.201 350.207,111.306 345.599,111.700 345.594 C 112.066 345.589,112.076 345.509,111.738 345.294 C 111.484 345.132,123.269 345.049,137.928 345.108 C 152.586 345.168,164.854 345.094,165.190 344.945 C 165.525 344.795,165.964 344.711,166.163 344.758 C 167.084 344.972,167.188 342.128,167.194 316.500 L 167.200 289.200 199.995 289.200 L 232.789 289.200 232.895 316.700 C 232.953 331.825,232.844 344.542,232.653 344.961 C 232.367 345.590,232.431 345.674,233.028 345.445 C 233.931 345.098,287.551 345.123,288.113 345.470 C 288.349 345.616,288.402 345.528,288.238 345.262 C 288.081 345.008,288.143 344.800,288.376 344.800 C 289.040 344.800,288.964 387.878,288.300 388.102 C 287.909 388.233,287.919 388.415,288.345 388.931 C 288.645 389.294,289.029 389.506,289.197 389.402 C 289.366 389.298,299.290 389.204,311.252 389.193 L 333.000 389.174 332.888 367.387 C 332.812 352.622,332.908 345.600,333.188 345.600 C 333.414 345.600,333.600 345.330,333.600 345.000 C 333.600 344.474,330.819 344.396,311.100 344.368 C 298.725 344.351,288.780 344.261,289.000 344.168 C 289.263 344.058,289.364 334.697,289.294 316.926 C 289.236 302.035,289.333 289.707,289.508 289.532 C 289.684 289.356,299.541 289.204,311.414 289.193 L 333.000 289.174 332.892 250.737 C 332.791 214.368,332.823 212.271,333.492 211.770 C 334.297 211.169,377.426 210.911,377.055 211.511 C 376.945 211.688,377.158 211.857,377.528 211.885 C 378.333 211.945,378.268 212.890,378.368 199.600 L 378.448 189.000 389.224 189.113 L 400.000 189.225 400.000 128.213 L 400.000 67.200 389.771 67.200 C 380.999 67.200,379.453 67.110,378.913 66.570 C 378.402 66.059,378.221 66.041,377.948 66.470 C 377.676 66.900,377.611 66.893,377.606 66.433 C 377.603 66.122,377.508 65.959,377.395 66.072 C 377.282 66.185,377.192 93.845,377.194 127.538 L 377.197 188.800 355.699 188.787 C 338.319 188.777,334.064 188.671,333.491 188.236 C 332.819 187.727,332.787 185.656,332.891 149.056 L 333.000 110.415 322.100 110.507 L 311.200 110.600 311.200 99.900 C 311.200 94.015,311.350 89.200,311.533 89.200 C 311.717 89.200,311.867 88.943,311.867 88.630 C 311.867 88.316,311.537 88.085,311.133 88.115 C 310.730 88.145,310.400 88.312,310.400 88.485 C 310.400 89.053,289.600 88.869,289.397 88.300 C 289.147 87.593,288.957 66.828,289.200 66.665 C 289.310 66.591,289.130 66.637,288.800 66.766 C 287.422 67.304,257.021 67.201,256.310 66.656 C 255.564 66.083,254.985 21.600,255.724 21.600 C 255.902 21.600,255.936 21.420,255.800 21.200 C 255.664 20.980,255.283 20.800,254.953 20.800 C 254.623 20.800,254.464 20.980,254.600 21.200 C 254.762 21.463,251.404 21.600,244.824 21.600 C 239.311 21.600,234.800 21.458,234.800 21.285 C 234.800 21.112,234.453 20.944,234.028 20.912 C 233.467 20.870,233.297 21.065,233.405 21.627 C 233.487 22.052,233.384 22.400,233.177 22.400 C 232.970 22.400,232.800 22.190,232.800 21.933 C 232.800 21.677,232.755 21.542,232.700 21.633 C 232.645 21.725,232.690 31.745,232.800 43.900 C 232.932 58.498,232.864 66.002,232.600 66.006 C 232.380 66.010,232.440 66.164,232.734 66.350 C 233.941 67.116,230.703 67.200,199.911 67.200 C 171.746 67.200,167.835 67.127,167.444 66.593 C 167.126 66.158,167.057 59.782,167.200 44.044 C 167.350 27.613,167.285 22.146,166.940 22.278 C 166.253 22.542,165.813 21.563,166.444 21.173 C 166.832 20.933,166.731 20.855,166.095 20.903 C 165.603 20.940,165.200 21.117,165.200 21.296 C 165.200 21.849,144.083 21.631,143.857 21.076 C 143.750 20.814,143.634 20.690,143.599 20.800 M256.243 22.233 C 255.811 23.359,255.964 65.200,256.400 65.200 C 256.662 65.200,256.800 57.667,256.800 43.400 C 256.800 31.410,256.729 21.600,256.643 21.600 C 256.556 21.600,256.376 21.885,256.243 22.233 M378.400 128.000 C 378.400 167.733,378.265 188.000,378.000 188.000 C 377.548 188.000,377.415 68.718,377.867 68.267 C 378.013 68.120,378.193 68.000,378.267 68.000 C 378.340 68.000,378.400 95.000,378.400 128.000 M22.500 150.100 C 22.555 171.385,22.465 188.800,22.300 188.800 C 22.135 188.800,22.043 161.665,22.096 128.500 C 22.150 95.335,22.239 77.920,22.296 89.800 C 22.353 101.680,22.445 128.815,22.500 150.100 M334.592 150.000 C 334.592 171.010,334.641 179.605,334.700 169.100 C 334.759 158.595,334.759 141.405,334.700 130.900 C 334.641 120.395,334.592 128.990,334.592 150.000 M267.110 188.033 C 267.217 230.313,267.156 234.009,266.379 232.779 C 266.177 232.461,266.009 232.380,266.006 232.600 C 266.002 232.863,258.457 232.968,243.993 232.907 L 221.986 232.814 221.996 189.337 C 222.002 165.424,222.095 145.771,222.203 145.663 C 222.312 145.555,222.400 164.947,222.400 188.757 C 222.400 217.515,222.534 231.964,222.800 231.800 C 223.063 231.638,223.200 216.727,223.200 188.369 L 223.200 145.186 244.362 145.293 C 256.001 145.352,265.450 145.280,265.359 145.134 C 265.165 144.819,266.028 144.424,266.600 144.567 C 266.863 144.632,267.038 159.547,267.110 188.033 M177.203 188.800 L 177.405 232.200 177.503 188.500 C 177.566 160.211,177.739 144.800,177.993 144.800 C 178.782 144.800,178.525 232.266,177.736 232.569 C 177.221 232.767,136.847 232.857,133.500 232.668 C 132.317 232.601,132.425 145.890,133.609 145.361 C 134.075 145.153,143.420 145.085,155.709 145.200 L 177.000 145.400 177.203 188.800 M134.593 188.400 C 134.593 212.270,134.641 222.035,134.700 210.100 C 134.759 198.165,134.759 178.635,134.700 166.700 C 134.641 154.765,134.593 164.530,134.593 188.400 M378.975 200.000 C 378.975 205.830,379.031 208.215,379.099 205.300 C 379.167 202.385,379.167 197.615,379.099 194.700 C 379.031 191.785,378.975 194.170,378.975 200.000 M334.592 250.000 C 334.592 271.010,334.641 279.605,334.700 269.100 C 334.759 258.595,334.759 241.405,334.700 230.900 C 334.641 220.395,334.592 228.990,334.592 250.000 M334.586 366.800 C 334.586 378.570,334.637 383.385,334.700 377.500 C 334.762 371.615,334.762 361.985,334.700 356.100 C 334.637 350.215,334.586 355.030,334.586 366.800 " stroke="none" fill="#543c84" fill-rule="evenodd"></path><path id="path1" d="M165.866 21.428 C 165.992 21.755,166.388 22.179,166.747 22.371 C 167.342 22.690,167.382 24.625,167.200 44.322 C 167.090 56.203,167.135 65.840,167.300 65.738 C 167.465 65.636,167.600 65.833,167.600 66.176 C 167.600 66.736,170.922 66.800,200.000 66.800 C 229.078 66.800,232.400 66.736,232.400 66.176 C 232.400 65.833,232.535 65.636,232.700 65.738 C 232.865 65.840,232.952 56.131,232.893 44.162 C 232.835 32.193,232.940 22.400,233.127 22.400 C 233.314 22.400,233.467 22.128,233.467 21.796 C 233.467 21.324,233.306 21.364,232.733 21.979 C 232.041 22.722,232.000 23.965,232.000 44.083 L 232.000 65.400 200.000 65.400 L 168.000 65.400 168.000 43.900 C 168.000 29.035,167.869 22.400,167.576 22.400 C 167.343 22.400,167.248 22.246,167.364 22.058 C 167.480 21.871,167.139 21.518,166.607 21.276 C 165.802 20.909,165.677 20.935,165.866 21.428 M255.200 22.000 C 255.200 22.220,255.470 22.400,255.800 22.400 C 256.130 22.400,256.400 22.220,256.400 22.000 C 256.400 21.780,256.130 21.600,255.800 21.600 C 255.470 21.600,255.200 21.780,255.200 22.000 M0.000 66.013 C 0.000 66.750,19.029 67.075,21.900 66.387 C 22.690 66.197,22.484 65.716,21.500 65.452 C 18.718 64.707,0.000 65.195,0.000 66.013 M111.400 65.506 C 109.808 66.676,110.929 66.767,127.206 66.791 C 143.394 66.815,143.600 66.805,143.600 66.008 C 143.600 65.174,112.512 64.689,111.400 65.506 M256.573 65.900 C 256.700 66.765,286.901 67.202,288.472 66.362 C 290.283 65.392,287.771 65.212,272.335 65.206 C 257.452 65.200,256.477 65.243,256.573 65.900 M378.262 65.547 C 376.110 66.394,379.855 66.800,389.819 66.800 C 399.733 66.800,400.000 66.779,400.000 66.000 C 400.000 65.169,380.267 64.757,378.262 65.547 M289.390 77.600 L 289.400 88.600 299.900 88.707 C 306.818 88.777,310.400 88.675,310.400 88.407 C 310.400 88.142,306.782 88.000,300.007 88.000 L 289.613 88.000 289.496 77.300 L 289.380 66.600 289.390 77.600 M376.800 127.600 L 376.800 188.000 355.596 188.000 L 334.392 188.000 334.400 149.900 C 334.404 128.945,334.406 111.581,334.404 111.313 C 334.402 111.044,334.130 110.929,333.800 111.055 C 332.996 111.364,332.877 187.517,333.680 188.320 C 334.041 188.681,339.474 188.800,355.675 188.800 L 377.190 188.800 377.197 128.000 C 377.202 94.560,377.114 67.200,377.002 67.200 C 376.891 67.200,376.800 94.380,376.800 127.600 M88.267 88.267 C 87.837 88.697,87.958 110.873,88.389 110.607 C 88.654 110.443,88.800 106.521,88.800 99.576 L 88.800 88.800 99.576 88.800 C 106.521 88.800,110.443 88.654,110.607 88.389 C 110.873 87.958,88.697 87.837,88.267 88.267 M311.200 100.000 C 311.200 106.933,311.343 110.800,311.600 110.800 C 311.857 110.800,312.000 106.933,312.000 100.000 C 312.000 93.067,311.857 89.200,311.600 89.200 C 311.343 89.200,311.200 93.067,311.200 100.000 M65.417 111.499 C 65.298 111.811,65.200 129.151,65.200 150.033 L 65.200 188.000 44.200 188.000 C 30.145 188.000,23.200 188.135,23.200 188.409 C 23.200 188.685,30.296 188.783,44.900 188.709 L 66.600 188.600 66.694 149.767 C 66.776 116.158,66.711 110.933,66.211 110.933 C 65.894 110.933,65.537 111.188,65.417 111.499 M265.825 145.032 C 265.255 145.602,265.203 149.931,265.296 188.832 L 265.400 232.000 244.300 232.000 C 230.745 232.000,223.200 232.141,223.200 232.393 C 223.200 232.644,230.908 232.825,244.562 232.893 C 256.311 232.952,265.840 232.865,265.738 232.700 C 265.636 232.535,265.835 232.400,266.180 232.400 C 266.745 232.400,266.806 228.090,266.797 188.400 C 266.791 164.200,266.712 144.400,266.622 144.400 C 266.531 144.400,266.173 144.684,265.825 145.032 M133.467 145.467 C 133.227 145.707,133.061 232.280,133.300 232.486 C 133.788 232.908,177.200 232.925,177.200 232.504 C 177.200 232.116,172.537 231.984,155.900 231.904 L 134.600 231.800 134.498 188.500 C 134.442 164.685,134.247 145.200,134.065 145.200 C 133.883 145.200,133.613 145.320,133.467 145.467 M176.993 188.600 C 176.993 212.360,177.041 222.021,177.100 210.069 C 177.159 198.117,177.159 178.677,177.100 166.869 C 177.041 155.061,176.993 164.840,176.993 188.600 M5.100 189.499 C 8.015 189.567,12.785 189.567,15.700 189.499 C 18.615 189.431,16.230 189.375,10.400 189.375 C 4.570 189.375,2.185 189.431,5.100 189.499 M384.300 189.499 C 387.215 189.567,391.985 189.567,394.900 189.499 C 397.815 189.431,395.430 189.375,389.600 189.375 C 383.770 189.375,381.385 189.431,384.300 189.499 M378.392 200.400 C 378.209 210.892,378.312 212.713,379.026 211.558 C 379.199 211.277,379.175 210.992,378.971 210.924 C 378.756 210.853,378.649 207.897,378.717 203.901 C 378.781 200.105,378.777 195.290,378.709 193.200 C 378.641 191.110,378.498 194.350,378.392 200.400 M20.800 211.200 C 20.800 211.420,20.935 211.614,21.100 211.631 C 21.265 211.647,21.715 211.722,22.100 211.795 C 22.973 211.962,23.025 211.372,22.167 211.043 C 21.252 210.692,20.800 210.744,20.800 211.200 M23.200 211.600 C 23.200 211.862,30.459 212.000,44.176 212.000 C 57.729 212.000,65.240 211.858,65.400 211.600 C 65.564 211.335,58.471 211.200,44.424 211.200 C 30.541 211.200,23.200 211.338,23.200 211.600 M65.678 211.682 C 65.101 212.259,64.988 287.846,65.563 288.754 C 66.692 290.536,66.800 287.131,66.794 249.926 C 66.788 213.320,66.710 210.650,65.678 211.682 M334.096 211.614 L 333.192 211.977 333.204 250.370 C 333.215 286.574,333.307 290.027,334.234 289.099 C 334.334 288.999,334.410 271.611,334.404 250.459 L 334.392 212.000 355.696 211.953 C 367.413 211.927,377.148 211.931,377.330 211.963 C 377.511 211.994,377.545 211.835,377.406 211.610 C 377.084 211.089,335.394 211.092,334.096 211.614 M77.700 289.500 C 83.805 289.562,93.795 289.562,99.900 289.500 C 106.005 289.438,101.010 289.387,88.800 289.387 C 76.590 289.387,71.595 289.438,77.700 289.500 M167.200 316.344 C 167.200 331.299,167.076 343.864,166.925 344.267 C 166.683 344.912,166.731 344.934,167.325 344.451 C 168.123 343.802,168.392 289.889,167.600 289.400 C 167.335 289.236,167.200 298.318,167.200 316.344 M184.100 289.500 C 192.845 289.560,207.155 289.560,215.900 289.500 C 224.645 289.440,217.490 289.391,200.000 289.391 C 182.510 289.391,175.355 289.440,184.100 289.500 M289.384 289.700 C 289.279 289.975,289.241 302.170,289.299 316.800 L 289.406 343.400 289.503 316.503 L 289.600 289.607 311.500 289.500 L 333.400 289.393 311.487 289.297 C 294.254 289.221,289.534 289.307,289.384 289.700 M232.000 317.176 C 232.000 337.590,232.120 344.827,232.462 345.038 C 232.735 345.207,232.816 345.149,232.659 344.896 C 232.514 344.661,232.531 344.408,232.698 344.334 C 233.166 344.127,232.864 289.600,232.395 289.600 C 232.139 289.600,232.000 299.315,232.000 317.176 M333.605 344.987 C 333.032 346.495,333.065 388.670,333.640 389.025 C 334.398 389.493,334.414 389.025,334.414 366.600 C 334.413 344.151,334.369 342.976,333.605 344.987 M65.439 345.494 C 65.055 345.878,65.176 388.143,65.563 388.754 C 66.622 390.426,66.800 387.253,66.800 366.669 C 66.800 345.499,66.718 344.216,65.439 345.494 M288.267 345.467 C 287.817 345.916,287.949 388.000,288.400 388.000 C 288.662 388.000,288.800 380.600,288.800 366.600 C 288.800 354.830,288.740 345.200,288.667 345.200 C 288.593 345.200,288.413 345.320,288.267 345.467 M111.207 367.616 C 111.218 380.881,111.372 389.541,111.593 389.404 C 112.129 389.073,112.138 345.600,111.603 345.600 C 111.320 345.600,111.194 352.639,111.207 367.616 M77.728 389.500 C 83.849 389.562,93.749 389.562,99.728 389.500 C 105.708 389.437,100.700 389.387,88.600 389.387 C 76.500 389.387,71.608 389.438,77.728 389.500 M300.100 389.500 C 306.205 389.562,316.195 389.562,322.300 389.500 C 328.405 389.438,323.410 389.387,311.200 389.387 C 298.990 389.387,293.995 389.438,300.100 389.500 " stroke="none" fill="#543c8c" fill-rule="evenodd"></path><path id="path2" d="M144.600 21.200 C 144.754 21.450,148.671 21.600,155.024 21.600 C 161.541 21.600,165.200 21.456,165.200 21.200 C 165.200 20.944,161.459 20.800,154.776 20.800 C 147.929 20.800,144.438 20.937,144.600 21.200 M234.800 21.200 C 234.800 21.456,238.408 21.600,244.824 21.600 C 251.404 21.600,254.762 21.463,254.600 21.200 C 254.263 20.654,234.800 20.654,234.800 21.200 M255.696 44.204 C 255.601 65.952,255.609 66.213,256.414 66.716 C 257.362 67.308,289.370 67.399,289.005 66.808 C 288.890 66.621,288.931 66.392,289.098 66.300 C 289.264 66.207,289.130 66.237,288.800 66.366 C 287.713 66.790,256.603 66.631,256.566 66.200 C 256.546 65.980,256.411 65.530,256.265 65.200 C 256.119 64.870,255.953 55.060,255.896 43.400 L 255.793 22.200 255.696 44.204 M143.467 23.067 C 142.859 23.674,143.194 64.958,143.813 65.776 C 144.331 66.462,144.400 63.997,144.400 44.676 C 144.400 32.644,144.250 22.800,144.067 22.800 C 143.883 22.800,143.613 22.920,143.467 23.067 M111.944 66.905 C 112.112 67.072,119.348 67.162,128.025 67.104 L 143.800 67.000 127.720 66.800 C 118.876 66.690,111.777 66.737,111.944 66.905 M200.000 66.800 L 167.400 67.007 199.876 67.104 C 221.201 67.167,232.438 67.063,232.600 66.800 C 232.736 66.580,232.792 66.443,232.724 66.496 C 232.656 66.550,217.930 66.686,200.000 66.800 M5.100 67.099 C 8.015 67.167,12.785 67.167,15.700 67.099 C 18.615 67.031,16.230 66.975,10.400 66.975 C 4.570 66.975,2.185 67.031,5.100 67.099 M384.300 67.099 C 387.215 67.167,391.985 67.167,394.900 67.099 C 397.815 67.031,395.430 66.975,389.600 66.975 C 383.770 66.975,381.385 67.031,384.300 67.099 M377.867 68.267 C 377.415 68.718,377.548 188.000,378.000 188.000 C 378.265 188.000,378.400 167.733,378.400 128.000 C 378.400 95.000,378.340 68.000,378.267 68.000 C 378.193 68.000,378.013 68.120,377.867 68.267 M22.096 128.500 C 22.043 161.665,22.135 188.800,22.300 188.800 C 22.571 188.800,22.570 147.020,22.296 89.800 C 22.239 77.920,22.150 95.335,22.096 128.500 M66.800 149.920 L 67.000 188.200 67.102 150.222 C 67.158 129.334,67.068 112.108,66.902 111.942 C 66.736 111.776,66.690 128.866,66.800 149.920 M332.992 150.000 C 332.992 171.010,333.041 179.605,333.100 169.100 C 333.159 158.595,333.159 141.405,333.100 130.900 C 333.041 120.395,332.992 128.990,332.992 150.000 M266.347 144.936 C 266.689 145.348,266.780 156.685,266.704 189.107 C 266.647 213.096,266.735 232.640,266.900 232.538 C 267.600 232.105,267.246 144.903,266.543 144.634 C 266.020 144.433,265.980 144.494,266.347 144.936 M134.743 145.304 C 134.911 145.471,144.487 145.561,156.024 145.503 L 177.000 145.400 155.720 145.200 C 144.016 145.090,134.576 145.137,134.743 145.304 M177.600 188.424 C 177.600 220.042,177.479 231.972,177.160 231.775 C 176.851 231.584,176.855 231.756,177.174 232.352 C 177.424 232.818,177.847 233.197,178.114 233.194 C 178.419 233.190,178.377 233.044,178.000 232.800 C 177.595 232.538,177.563 232.410,177.903 232.406 C 178.305 232.401,178.405 223.533,178.396 188.600 C 178.390 160.187,178.248 144.800,177.993 144.800 C 177.738 144.800,177.600 160.119,177.600 188.424 M244.200 145.200 L 223.000 145.411 244.076 145.505 C 257.799 145.567,265.239 145.460,265.400 145.200 C 265.536 144.980,265.592 144.843,265.524 144.895 C 265.456 144.947,255.860 145.084,244.200 145.200 M132.993 189.200 C 132.993 213.290,133.041 223.145,133.100 211.100 C 133.159 199.055,133.159 179.345,133.100 167.300 C 133.041 155.255,132.993 165.110,132.993 189.200 M222.000 189.133 C 221.890 213.187,221.863 232.929,221.939 233.006 C 222.257 233.323,223.200 232.671,223.200 232.134 C 223.200 231.814,223.021 231.664,222.802 231.799 C 222.539 231.962,222.369 217.347,222.302 188.723 L 222.200 145.400 222.000 189.133 M21.043 189.433 C 20.615 190.547,20.764 210.400,21.200 210.400 C 21.457 210.400,21.600 206.533,21.600 199.600 C 21.600 189.078,21.547 188.118,21.043 189.433 M66.704 250.100 C 66.647 271.055,66.495 288.470,66.366 288.800 C 66.237 289.130,66.207 289.264,66.300 289.098 C 66.392 288.931,66.628 288.894,66.823 289.014 C 67.027 289.140,67.184 272.925,67.194 250.616 C 67.204 229.377,67.121 212.000,67.010 212.000 C 66.899 212.000,66.761 229.145,66.704 250.100 M332.900 250.200 C 332.857 271.320,332.951 288.808,333.111 289.062 C 333.372 289.480,333.355 237.967,333.087 219.400 C 333.027 215.220,332.943 229.080,332.900 250.200 M68.000 343.796 C 68.000 344.327,70.593 344.400,89.433 344.400 C 106.402 344.400,110.832 344.296,110.700 343.900 C 110.425 343.076,68.000 342.973,68.000 343.796 M289.379 343.566 C 289.503 343.767,289.379 344.023,289.102 344.134 C 288.826 344.246,298.815 344.351,311.300 344.368 C 332.002 344.397,335.475 344.252,333.367 343.443 C 332.317 343.040,289.128 343.161,289.379 343.566 M165.320 344.840 C 165.090 345.070,154.533 345.175,138.110 345.108 C 123.351 345.049,111.484 345.134,111.738 345.297 C 112.393 345.717,166.800 345.653,166.800 345.232 C 166.800 344.697,165.743 344.417,165.320 344.840 M233.738 345.300 C 233.498 345.688,287.652 345.682,288.262 345.294 C 288.516 345.132,276.394 345.000,261.324 345.000 C 246.254 345.000,233.840 345.135,233.738 345.300 M66.707 366.900 C 66.648 378.615,66.495 388.470,66.366 388.800 C 66.237 389.130,66.207 389.264,66.300 389.098 C 66.392 388.931,66.624 388.891,66.815 389.009 C 67.008 389.128,67.174 379.583,67.190 367.411 C 67.206 355.415,67.128 345.600,67.016 345.600 C 66.905 345.600,66.766 355.185,66.707 366.900 M332.895 367.000 C 332.858 378.880,332.956 388.808,333.114 389.063 C 333.376 389.486,333.349 359.441,333.079 349.600 C 333.015 347.290,332.933 355.120,332.895 367.000 " stroke="none" fill="#583c84" fill-rule="evenodd"></path><path id="path3" d="M144.600 21.200 C 144.754 21.450,148.671 21.600,155.024 21.600 C 161.541 21.600,165.200 21.456,165.200 21.200 C 165.200 20.944,161.459 20.800,154.776 20.800 C 147.929 20.800,144.438 20.937,144.600 21.200 M234.800 21.200 C 234.800 21.456,238.408 21.600,244.824 21.600 C 251.404 21.600,254.762 21.463,254.600 21.200 C 254.263 20.654,234.800 20.654,234.800 21.200 M255.696 44.204 C 255.601 65.952,255.609 66.213,256.414 66.716 C 257.362 67.308,289.370 67.399,289.005 66.808 C 288.890 66.621,288.931 66.392,289.098 66.300 C 289.264 66.207,289.130 66.237,288.800 66.366 C 287.713 66.790,256.603 66.631,256.566 66.200 C 256.546 65.980,256.411 65.530,256.265 65.200 C 256.119 64.870,255.953 55.060,255.896 43.400 L 255.793 22.200 255.696 44.204 M143.467 23.067 C 142.859 23.674,143.194 64.958,143.813 65.776 C 144.331 66.462,144.400 63.997,144.400 44.676 C 144.400 32.644,144.250 22.800,144.067 22.800 C 143.883 22.800,143.613 22.920,143.467 23.067 M111.944 66.905 C 112.112 67.072,119.348 67.162,128.025 67.104 L 143.800 67.000 127.720 66.800 C 118.876 66.690,111.777 66.737,111.944 66.905 M200.000 66.800 L 167.400 67.007 199.876 67.104 C 221.201 67.167,232.438 67.063,232.600 66.800 C 232.736 66.580,232.792 66.443,232.724 66.496 C 232.656 66.550,217.930 66.686,200.000 66.800 M5.100 67.099 C 8.015 67.167,12.785 67.167,15.700 67.099 C 18.615 67.031,16.230 66.975,10.400 66.975 C 4.570 66.975,2.185 67.031,5.100 67.099 M384.300 67.099 C 387.215 67.167,391.985 67.167,394.900 67.099 C 397.815 67.031,395.430 66.975,389.600 66.975 C 383.770 66.975,381.385 67.031,384.300 67.099 M377.867 68.267 C 377.415 68.718,377.548 188.000,378.000 188.000 C 378.265 188.000,378.400 167.733,378.400 128.000 C 378.400 95.000,378.340 68.000,378.267 68.000 C 378.193 68.000,378.013 68.120,377.867 68.267 M22.096 128.500 C 22.043 161.665,22.135 188.800,22.300 188.800 C 22.571 188.800,22.570 147.020,22.296 89.800 C 22.239 77.920,22.150 95.335,22.096 128.500 M66.800 149.920 L 67.000 188.200 67.102 150.222 C 67.158 129.334,67.068 112.108,66.902 111.942 C 66.736 111.776,66.690 128.866,66.800 149.920 M332.992 150.000 C 332.992 171.010,333.041 179.605,333.100 169.100 C 333.159 158.595,333.159 141.405,333.100 130.900 C 333.041 120.395,332.992 128.990,332.992 150.000 M266.347 144.936 C 266.689 145.348,266.780 156.685,266.704 189.107 C 266.647 213.096,266.735 232.640,266.900 232.538 C 267.600 232.105,267.246 144.903,266.543 144.634 C 266.020 144.433,265.980 144.494,266.347 144.936 M134.743 145.304 C 134.911 145.471,144.487 145.561,156.024 145.503 L 177.000 145.400 155.720 145.200 C 144.016 145.090,134.576 145.137,134.743 145.304 M177.600 188.424 C 177.600 220.042,177.479 231.972,177.160 231.775 C 176.851 231.584,176.855 231.756,177.174 232.352 C 177.424 232.818,177.847 233.197,178.114 233.194 C 178.419 233.190,178.377 233.044,178.000 232.800 C 177.595 232.538,177.563 232.410,177.903 232.406 C 178.305 232.401,178.405 223.533,178.396 188.600 C 178.390 160.187,178.248 144.800,177.993 144.800 C 177.738 144.800,177.600 160.119,177.600 188.424 M244.200 145.200 L 223.000 145.411 244.076 145.505 C 257.799 145.567,265.239 145.460,265.400 145.200 C 265.536 144.980,265.592 144.843,265.524 144.895 C 265.456 144.947,255.860 145.084,244.200 145.200 M132.993 189.200 C 132.993 213.290,133.041 223.145,133.100 211.100 C 133.159 199.055,133.159 179.345,133.100 167.300 C 133.041 155.255,132.993 165.110,132.993 189.200 M222.000 189.133 C 221.890 213.187,221.863 232.929,221.939 233.006 C 222.257 233.323,223.200 232.671,223.200 232.134 C 223.200 231.814,223.021 231.664,222.802 231.799 C 222.539 231.962,222.369 217.347,222.302 188.723 L 222.200 145.400 222.000 189.133 M21.043 189.433 C 20.615 190.547,20.764 210.400,21.200 210.400 C 21.457 210.400,21.600 206.533,21.600 199.600 C 21.600 189.078,21.547 188.118,21.043 189.433 M66.704 250.100 C 66.647 271.055,66.495 288.470,66.366 288.800 C 66.237 289.130,66.207 289.264,66.300 289.098 C 66.392 288.931,66.628 288.894,66.823 289.014 C 67.027 289.140,67.184 272.925,67.194 250.616 C 67.204 229.377,67.121 212.000,67.010 212.000 C 66.899 212.000,66.761 229.145,66.704 250.100 M332.900 250.200 C 332.857 271.320,332.951 288.808,333.111 289.062 C 333.372 289.480,333.355 237.967,333.087 219.400 C 333.027 215.220,332.943 229.080,332.900 250.200 M68.000 343.796 C 68.000 344.327,70.593 344.400,89.433 344.400 C 106.402 344.400,110.832 344.296,110.700 343.900 C 110.425 343.076,68.000 342.973,68.000 343.796 M289.379 343.566 C 289.503 343.767,289.379 344.023,289.102 344.134 C 288.826 344.246,298.815 344.351,311.300 344.368 C 332.002 344.397,335.475 344.252,333.367 343.443 C 332.317 343.040,289.128 343.161,289.379 343.566 M165.320 344.840 C 165.090 345.070,154.533 345.175,138.110 345.108 C 123.351 345.049,111.484 345.134,111.738 345.297 C 112.393 345.717,166.800 345.653,166.800 345.232 C 166.800 344.697,165.743 344.417,165.320 344.840 M233.738 345.300 C 233.498 345.688,287.652 345.682,288.262 345.294 C 288.516 345.132,276.394 345.000,261.324 345.000 C 246.254 345.000,233.840 345.135,233.738 345.300 M66.707 366.900 C 66.648 378.615,66.495 388.470,66.366 388.800 C 66.237 389.130,66.207 389.264,66.300 389.098 C 66.392 388.931,66.624 388.891,66.815 389.009 C 67.008 389.128,67.174 379.583,67.190 367.411 C 67.206 355.415,67.128 345.600,67.016 345.600 C 66.905 345.600,66.766 355.185,66.707 366.900 M332.895 367.000 C 332.858 378.880,332.956 388.808,333.114 389.063 C 333.376 389.486,333.349 359.441,333.079 349.600 C 333.015 347.290,332.933 355.120,332.895 367.000 " stroke="none" fill="#583c84" fill-rule="evenodd"></path><path id="path4" d="M144.600 21.200 C 144.754 21.450,148.671 21.600,155.024 21.600 C 161.541 21.600,165.200 21.456,165.200 21.200 C 165.200 20.944,161.459 20.800,154.776 20.800 C 147.929 20.800,144.438 20.937,144.600 21.200 M234.800 21.200 C 234.800 21.456,238.408 21.600,244.824 21.600 C 251.404 21.600,254.762 21.463,254.600 21.200 C 254.263 20.654,234.800 20.654,234.800 21.200 M255.696 44.204 C 255.601 65.952,255.609 66.213,256.414 66.716 C 257.362 67.308,289.370 67.399,289.005 66.808 C 288.890 66.621,288.931 66.392,289.098 66.300 C 289.264 66.207,289.130 66.237,288.800 66.366 C 287.713 66.790,256.603 66.631,256.566 66.200 C 256.546 65.980,256.411 65.530,256.265 65.200 C 256.119 64.870,255.953 55.060,255.896 43.400 L 255.793 22.200 255.696 44.204 M143.467 23.067 C 142.859 23.674,143.194 64.958,143.813 65.776 C 144.331 66.462,144.400 63.997,144.400 44.676 C 144.400 32.644,144.250 22.800,144.067 22.800 C 143.883 22.800,143.613 22.920,143.467 23.067 M111.944 66.905 C 112.112 67.072,119.348 67.162,128.025 67.104 L 143.800 67.000 127.720 66.800 C 118.876 66.690,111.777 66.737,111.944 66.905 M200.000 66.800 L 167.400 67.007 199.876 67.104 C 221.201 67.167,232.438 67.063,232.600 66.800 C 232.736 66.580,232.792 66.443,232.724 66.496 C 232.656 66.550,217.930 66.686,200.000 66.800 M5.100 67.099 C 8.015 67.167,12.785 67.167,15.700 67.099 C 18.615 67.031,16.230 66.975,10.400 66.975 C 4.570 66.975,2.185 67.031,5.100 67.099 M384.300 67.099 C 387.215 67.167,391.985 67.167,394.900 67.099 C 397.815 67.031,395.430 66.975,389.600 66.975 C 383.770 66.975,381.385 67.031,384.300 67.099 M377.867 68.267 C 377.415 68.718,377.548 188.000,378.000 188.000 C 378.265 188.000,378.400 167.733,378.400 128.000 C 378.400 95.000,378.340 68.000,378.267 68.000 C 378.193 68.000,378.013 68.120,377.867 68.267 M22.096 128.500 C 22.043 161.665,22.135 188.800,22.300 188.800 C 22.571 188.800,22.570 147.020,22.296 89.800 C 22.239 77.920,22.150 95.335,22.096 128.500 M66.800 149.920 L 67.000 188.200 67.102 150.222 C 67.158 129.334,67.068 112.108,66.902 111.942 C 66.736 111.776,66.690 128.866,66.800 149.920 M332.992 150.000 C 332.992 171.010,333.041 179.605,333.100 169.100 C 333.159 158.595,333.159 141.405,333.100 130.900 C 333.041 120.395,332.992 128.990,332.992 150.000 M266.347 144.936 C 266.689 145.348,266.780 156.685,266.704 189.107 C 266.647 213.096,266.735 232.640,266.900 232.538 C 267.600 232.105,267.246 144.903,266.543 144.634 C 266.020 144.433,265.980 144.494,266.347 144.936 M134.743 145.304 C 134.911 145.471,144.487 145.561,156.024 145.503 L 177.000 145.400 155.720 145.200 C 144.016 145.090,134.576 145.137,134.743 145.304 M177.600 188.424 C 177.600 220.042,177.479 231.972,177.160 231.775 C 176.851 231.584,176.855 231.756,177.174 232.352 C 177.424 232.818,177.847 233.197,178.114 233.194 C 178.419 233.190,178.377 233.044,178.000 232.800 C 177.595 232.538,177.563 232.410,177.903 232.406 C 178.305 232.401,178.405 223.533,178.396 188.600 C 178.390 160.187,178.248 144.800,177.993 144.800 C 177.738 144.800,177.600 160.119,177.600 188.424 M244.200 145.200 L 223.000 145.411 244.076 145.505 C 257.799 145.567,265.239 145.460,265.400 145.200 C 265.536 144.980,265.592 144.843,265.524 144.895 C 265.456 144.947,255.860 145.084,244.200 145.200 M132.993 189.200 C 132.993 213.290,133.041 223.145,133.100 211.100 C 133.159 199.055,133.159 179.345,133.100 167.300 C 133.041 155.255,132.993 165.110,132.993 189.200 M222.000 189.133 C 221.890 213.187,221.863 232.929,221.939 233.006 C 222.257 233.323,223.200 232.671,223.200 232.134 C 223.200 231.814,223.021 231.664,222.802 231.799 C 222.539 231.962,222.369 217.347,222.302 188.723 L 222.200 145.400 222.000 189.133 M21.043 189.433 C 20.615 190.547,20.764 210.400,21.200 210.400 C 21.457 210.400,21.600 206.533,21.600 199.600 C 21.600 189.078,21.547 188.118,21.043 189.433 M66.704 250.100 C 66.647 271.055,66.495 288.470,66.366 288.800 C 66.237 289.130,66.207 289.264,66.300 289.098 C 66.392 288.931,66.628 288.894,66.823 289.014 C 67.027 289.140,67.184 272.925,67.194 250.616 C 67.204 229.377,67.121 212.000,67.010 212.000 C 66.899 212.000,66.761 229.145,66.704 250.100 M332.900 250.200 C 332.857 271.320,332.951 288.808,333.111 289.062 C 333.372 289.480,333.355 237.967,333.087 219.400 C 333.027 215.220,332.943 229.080,332.900 250.200 M68.000 343.796 C 68.000 344.327,70.593 344.400,89.433 344.400 C 106.402 344.400,110.832 344.296,110.700 343.900 C 110.425 343.076,68.000 342.973,68.000 343.796 M289.379 343.566 C 289.503 343.767,289.379 344.023,289.102 344.134 C 288.826 344.246,298.815 344.351,311.300 344.368 C 332.002 344.397,335.475 344.252,333.367 343.443 C 332.317 343.040,289.128 343.161,289.379 343.566 M165.320 344.840 C 165.090 345.070,154.533 345.175,138.110 345.108 C 123.351 345.049,111.484 345.134,111.738 345.297 C 112.393 345.717,166.800 345.653,166.800 345.232 C 166.800 344.697,165.743 344.417,165.320 344.840 M233.738 345.300 C 233.498 345.688,287.652 345.682,288.262 345.294 C 288.516 345.132,276.394 345.000,261.324 345.000 C 246.254 345.000,233.840 345.135,233.738 345.300 M66.707 366.900 C 66.648 378.615,66.495 388.470,66.366 388.800 C 66.237 389.130,66.207 389.264,66.300 389.098 C 66.392 388.931,66.624 388.891,66.815 389.009 C 67.008 389.128,67.174 379.583,67.190 367.411 C 67.206 355.415,67.128 345.600,67.016 345.600 C 66.905 345.600,66.766 355.185,66.707 366.900 M332.895 367.000 C 332.858 378.880,332.956 388.808,333.114 389.063 C 333.376 389.486,333.349 359.441,333.079 349.600 C 333.015 347.290,332.933 355.120,332.895 367.000 " stroke="none" fill="#583c84" fill-rule="evenodd"></path><path id="path5" d="M144.600 21.200 C 144.754 21.450,148.671 21.600,155.024 21.600 C 161.541 21.600,165.200 21.456,165.200 21.200 C 165.200 20.944,161.459 20.800,154.776 20.800 C 147.929 20.800,144.438 20.937,144.600 21.200 M234.800 21.200 C 234.800 21.456,238.408 21.600,244.824 21.600 C 251.404 21.600,254.762 21.463,254.600 21.200 C 254.263 20.654,234.800 20.654,234.800 21.200 M255.696 44.204 C 255.601 65.952,255.609 66.213,256.414 66.716 C 257.362 67.308,289.370 67.399,289.005 66.808 C 288.890 66.621,288.931 66.392,289.098 66.300 C 289.264 66.207,289.130 66.237,288.800 66.366 C 287.713 66.790,256.603 66.631,256.566 66.200 C 256.546 65.980,256.411 65.530,256.265 65.200 C 256.119 64.870,255.953 55.060,255.896 43.400 L 255.793 22.200 255.696 44.204 M143.467 23.067 C 142.859 23.674,143.194 64.958,143.813 65.776 C 144.331 66.462,144.400 63.997,144.400 44.676 C 144.400 32.644,144.250 22.800,144.067 22.800 C 143.883 22.800,143.613 22.920,143.467 23.067 M111.944 66.905 C 112.112 67.072,119.348 67.162,128.025 67.104 L 143.800 67.000 127.720 66.800 C 118.876 66.690,111.777 66.737,111.944 66.905 M200.000 66.800 L 167.400 67.007 199.876 67.104 C 221.201 67.167,232.438 67.063,232.600 66.800 C 232.736 66.580,232.792 66.443,232.724 66.496 C 232.656 66.550,217.930 66.686,200.000 66.800 M5.100 67.099 C 8.015 67.167,12.785 67.167,15.700 67.099 C 18.615 67.031,16.230 66.975,10.400 66.975 C 4.570 66.975,2.185 67.031,5.100 67.099 M384.300 67.099 C 387.215 67.167,391.985 67.167,394.900 67.099 C 397.815 67.031,395.430 66.975,389.600 66.975 C 383.770 66.975,381.385 67.031,384.300 67.099 M377.867 68.267 C 377.415 68.718,377.548 188.000,378.000 188.000 C 378.265 188.000,378.400 167.733,378.400 128.000 C 378.400 95.000,378.340 68.000,378.267 68.000 C 378.193 68.000,378.013 68.120,377.867 68.267 M22.096 128.500 C 22.043 161.665,22.135 188.800,22.300 188.800 C 22.571 188.800,22.570 147.020,22.296 89.800 C 22.239 77.920,22.150 95.335,22.096 128.500 M66.800 149.920 L 67.000 188.200 67.102 150.222 C 67.158 129.334,67.068 112.108,66.902 111.942 C 66.736 111.776,66.690 128.866,66.800 149.920 M332.992 150.000 C 332.992 171.010,333.041 179.605,333.100 169.100 C 333.159 158.595,333.159 141.405,333.100 130.900 C 333.041 120.395,332.992 128.990,332.992 150.000 M266.347 144.936 C 266.689 145.348,266.780 156.685,266.704 189.107 C 266.647 213.096,266.735 232.640,266.900 232.538 C 267.600 232.105,267.246 144.903,266.543 144.634 C 266.020 144.433,265.980 144.494,266.347 144.936 M134.743 145.304 C 134.911 145.471,144.487 145.561,156.024 145.503 L 177.000 145.400 155.720 145.200 C 144.016 145.090,134.576 145.137,134.743 145.304 M177.600 188.424 C 177.600 220.042,177.479 231.972,177.160 231.775 C 176.851 231.584,176.855 231.756,177.174 232.352 C 177.424 232.818,177.847 233.197,178.114 233.194 C 178.419 233.190,178.377 233.044,178.000 232.800 C 177.595 232.538,177.563 232.410,177.903 232.406 C 178.305 232.401,178.405 223.533,178.396 188.600 C 178.390 160.187,178.248 144.800,177.993 144.800 C 177.738 144.800,177.600 160.119,177.600 188.424 M244.200 145.200 L 223.000 145.411 244.076 145.505 C 257.799 145.567,265.239 145.460,265.400 145.200 C 265.536 144.980,265.592 144.843,265.524 144.895 C 265.456 144.947,255.860 145.084,244.200 145.200 M132.993 189.200 C 132.993 213.290,133.041 223.145,133.100 211.100 C 133.159 199.055,133.159 179.345,133.100 167.300 C 133.041 155.255,132.993 165.110,132.993 189.200 M222.000 189.133 C 221.890 213.187,221.863 232.929,221.939 233.006 C 222.257 233.323,223.200 232.671,223.200 232.134 C 223.200 231.814,223.021 231.664,222.802 231.799 C 222.539 231.962,222.369 217.347,222.302 188.723 L 222.200 145.400 222.000 189.133 M21.043 189.433 C 20.615 190.547,20.764 210.400,21.200 210.400 C 21.457 210.400,21.600 206.533,21.600 199.600 C 21.600 189.078,21.547 188.118,21.043 189.433 M66.704 250.100 C 66.647 271.055,66.495 288.470,66.366 288.800 C 66.237 289.130,66.207 289.264,66.300 289.098 C 66.392 288.931,66.628 288.894,66.823 289.014 C 67.027 289.140,67.184 272.925,67.194 250.616 C 67.204 229.377,67.121 212.000,67.010 212.000 C 66.899 212.000,66.761 229.145,66.704 250.100 M332.900 250.200 C 332.857 271.320,332.951 288.808,333.111 289.062 C 333.372 289.480,333.355 237.967,333.087 219.400 C 333.027 215.220,332.943 229.080,332.900 250.200 M68.000 343.796 C 68.000 344.327,70.593 344.400,89.433 344.400 C 106.402 344.400,110.832 344.296,110.700 343.900 C 110.425 343.076,68.000 342.973,68.000 343.796 M289.379 343.566 C 289.503 343.767,289.379 344.023,289.102 344.134 C 288.826 344.246,298.815 344.351,311.300 344.368 C 332.002 344.397,335.475 344.252,333.367 343.443 C 332.317 343.040,289.128 343.161,289.379 343.566 M165.320 344.840 C 165.090 345.070,154.533 345.175,138.110 345.108 C 123.351 345.049,111.484 345.134,111.738 345.297 C 112.393 345.717,166.800 345.653,166.800 345.232 C 166.800 344.697,165.743 344.417,165.320 344.840 M233.738 345.300 C 233.498 345.688,287.652 345.682,288.262 345.294 C 288.516 345.132,276.394 345.000,261.324 345.000 C 246.254 345.000,233.840 345.135,233.738 345.300 M66.707 366.900 C 66.648 378.615,66.495 388.470,66.366 388.800 C 66.237 389.130,66.207 389.264,66.300 389.098 C 66.392 388.931,66.624 388.891,66.815 389.009 C 67.008 389.128,67.174 379.583,67.190 367.411 C 67.206 355.415,67.128 345.600,67.016 345.600 C 66.905 345.600,66.766 355.185,66.707 366.900 M332.895 367.000 C 332.858 378.880,332.956 388.808,333.114 389.063 C 333.376 389.486,333.349 359.441,333.079 349.600 C 333.015 347.290,332.933 355.120,332.895 367.000 " stroke="none" fill="#583c84" fill-rule="evenodd"></path><path id="path6" d="M144.600 21.200 C 144.754 21.450,148.671 21.600,155.024 21.600 C 161.541 21.600,165.200 21.456,165.200 21.200 C 165.200 20.944,161.459 20.800,154.776 20.800 C 147.929 20.800,144.438 20.937,144.600 21.200 M234.800 21.200 C 234.800 21.456,238.408 21.600,244.824 21.600 C 251.404 21.600,254.762 21.463,254.600 21.200 C 254.263 20.654,234.800 20.654,234.800 21.200 M255.696 44.204 C 255.601 65.952,255.609 66.213,256.414 66.716 C 257.362 67.308,289.370 67.399,289.005 66.808 C 288.890 66.621,288.931 66.392,289.098 66.300 C 289.264 66.207,289.130 66.237,288.800 66.366 C 287.713 66.790,256.603 66.631,256.566 66.200 C 256.546 65.980,256.411 65.530,256.265 65.200 C 256.119 64.870,255.953 55.060,255.896 43.400 L 255.793 22.200 255.696 44.204 M143.467 23.067 C 142.859 23.674,143.194 64.958,143.813 65.776 C 144.331 66.462,144.400 63.997,144.400 44.676 C 144.400 32.644,144.250 22.800,144.067 22.800 C 143.883 22.800,143.613 22.920,143.467 23.067 M111.944 66.905 C 112.112 67.072,119.348 67.162,128.025 67.104 L 143.800 67.000 127.720 66.800 C 118.876 66.690,111.777 66.737,111.944 66.905 M200.000 66.800 L 167.400 67.007 199.876 67.104 C 221.201 67.167,232.438 67.063,232.600 66.800 C 232.736 66.580,232.792 66.443,232.724 66.496 C 232.656 66.550,217.930 66.686,200.000 66.800 M5.100 67.099 C 8.015 67.167,12.785 67.167,15.700 67.099 C 18.615 67.031,16.230 66.975,10.400 66.975 C 4.570 66.975,2.185 67.031,5.100 67.099 M384.300 67.099 C 387.215 67.167,391.985 67.167,394.900 67.099 C 397.815 67.031,395.430 66.975,389.600 66.975 C 383.770 66.975,381.385 67.031,384.300 67.099 M377.867 68.267 C 377.415 68.718,377.548 188.000,378.000 188.000 C 378.265 188.000,378.400 167.733,378.400 128.000 C 378.400 95.000,378.340 68.000,378.267 68.000 C 378.193 68.000,378.013 68.120,377.867 68.267 M22.096 128.500 C 22.043 161.665,22.135 188.800,22.300 188.800 C 22.571 188.800,22.570 147.020,22.296 89.800 C 22.239 77.920,22.150 95.335,22.096 128.500 M66.800 149.920 L 67.000 188.200 67.102 150.222 C 67.158 129.334,67.068 112.108,66.902 111.942 C 66.736 111.776,66.690 128.866,66.800 149.920 M332.992 150.000 C 332.992 171.010,333.041 179.605,333.100 169.100 C 333.159 158.595,333.159 141.405,333.100 130.900 C 333.041 120.395,332.992 128.990,332.992 150.000 M266.347 144.936 C 266.689 145.348,266.780 156.685,266.704 189.107 C 266.647 213.096,266.735 232.640,266.900 232.538 C 267.600 232.105,267.246 144.903,266.543 144.634 C 266.020 144.433,265.980 144.494,266.347 144.936 M134.743 145.304 C 134.911 145.471,144.487 145.561,156.024 145.503 L 177.000 145.400 155.720 145.200 C 144.016 145.090,134.576 145.137,134.743 145.304 M177.600 188.424 C 177.600 220.042,177.479 231.972,177.160 231.775 C 176.851 231.584,176.855 231.756,177.174 232.352 C 177.424 232.818,177.847 233.197,178.114 233.194 C 178.419 233.190,178.377 233.044,178.000 232.800 C 177.595 232.538,177.563 232.410,177.903 232.406 C 178.305 232.401,178.405 223.533,178.396 188.600 C 178.390 160.187,178.248 144.800,177.993 144.800 C 177.738 144.800,177.600 160.119,177.600 188.424 M244.200 145.200 L 223.000 145.411 244.076 145.505 C 257.799 145.567,265.239 145.460,265.400 145.200 C 265.536 144.980,265.592 144.843,265.524 144.895 C 265.456 144.947,255.860 145.084,244.200 145.200 M132.993 189.200 C 132.993 213.290,133.041 223.145,133.100 211.100 C 133.159 199.055,133.159 179.345,133.100 167.300 C 133.041 155.255,132.993 165.110,132.993 189.200 M222.000 189.133 C 221.890 213.187,221.863 232.929,221.939 233.006 C 222.257 233.323,223.200 232.671,223.200 232.134 C 223.200 231.814,223.021 231.664,222.802 231.799 C 222.539 231.962,222.369 217.347,222.302 188.723 L 222.200 145.400 222.000 189.133 M21.043 189.433 C 20.615 190.547,20.764 210.400,21.200 210.400 C 21.457 210.400,21.600 206.533,21.600 199.600 C 21.600 189.078,21.547 188.118,21.043 189.433 M66.704 250.100 C 66.647 271.055,66.495 288.470,66.366 288.800 C 66.237 289.130,66.207 289.264,66.300 289.098 C 66.392 288.931,66.628 288.894,66.823 289.014 C 67.027 289.140,67.184 272.925,67.194 250.616 C 67.204 229.377,67.121 212.000,67.010 212.000 C 66.899 212.000,66.761 229.145,66.704 250.100 M332.900 250.200 C 332.857 271.320,332.951 288.808,333.111 289.062 C 333.372 289.480,333.355 237.967,333.087 219.400 C 333.027 215.220,332.943 229.080,332.900 250.200 M68.000 343.796 C 68.000 344.327,70.593 344.400,89.433 344.400 C 106.402 344.400,110.832 344.296,110.700 343.900 C 110.425 343.076,68.000 342.973,68.000 343.796 M289.379 343.566 C 289.503 343.767,289.379 344.023,289.102 344.134 C 288.826 344.246,298.815 344.351,311.300 344.368 C 332.002 344.397,335.475 344.252,333.367 343.443 C 332.317 343.040,289.128 343.161,289.379 343.566 M165.320 344.840 C 165.090 345.070,154.533 345.175,138.110 345.108 C 123.351 345.049,111.484 345.134,111.738 345.297 C 112.393 345.717,166.800 345.653,166.800 345.232 C 166.800 344.697,165.743 344.417,165.320 344.840 M233.738 345.300 C 233.498 345.688,287.652 345.682,288.262 345.294 C 288.516 345.132,276.394 345.000,261.324 345.000 C 246.254 345.000,233.840 345.135,233.738 345.300 M66.707 366.900 C 66.648 378.615,66.495 388.470,66.366 388.800 C 66.237 389.130,66.207 389.264,66.300 389.098 C 66.392 388.931,66.624 388.891,66.815 389.009 C 67.008 389.128,67.174 379.583,67.190 367.411 C 67.206 355.415,67.128 345.600,67.016 345.600 C 66.905 345.600,66.766 355.185,66.707 366.900 M332.895 367.000 C 332.858 378.880,332.956 388.808,333.114 389.063 C 333.376 389.486,333.349 359.441,333.079 349.600 C 333.015 347.290,332.933 355.120,332.895 367.000 " stroke="none" fill="#583c84" fill-rule="evenodd"></path><path id="path7" d="M144.600 21.200 C 144.754 21.450,148.671 21.600,155.024 21.600 C 161.541 21.600,165.200 21.456,165.200 21.200 C 165.200 20.944,161.459 20.800,154.776 20.800 C 147.929 20.800,144.438 20.937,144.600 21.200 M234.800 21.200 C 234.800 21.456,238.408 21.600,244.824 21.600 C 251.404 21.600,254.762 21.463,254.600 21.200 C 254.263 20.654,234.800 20.654,234.800 21.200 M255.696 44.204 C 255.601 65.952,255.609 66.213,256.414 66.716 C 257.362 67.308,289.370 67.399,289.005 66.808 C 288.890 66.621,288.931 66.392,289.098 66.300 C 289.264 66.207,289.130 66.237,288.800 66.366 C 287.713 66.790,256.603 66.631,256.566 66.200 C 256.546 65.980,256.411 65.530,256.265 65.200 C 256.119 64.870,255.953 55.060,255.896 43.400 L 255.793 22.200 255.696 44.204 M143.467 23.067 C 142.859 23.674,143.194 64.958,143.813 65.776 C 144.331 66.462,144.400 63.997,144.400 44.676 C 144.400 32.644,144.250 22.800,144.067 22.800 C 143.883 22.800,143.613 22.920,143.467 23.067 M111.944 66.905 C 112.112 67.072,119.348 67.162,128.025 67.104 L 143.800 67.000 127.720 66.800 C 118.876 66.690,111.777 66.737,111.944 66.905 M200.000 66.800 L 167.400 67.007 199.876 67.104 C 221.201 67.167,232.438 67.063,232.600 66.800 C 232.736 66.580,232.792 66.443,232.724 66.496 C 232.656 66.550,217.930 66.686,200.000 66.800 M5.100 67.099 C 8.015 67.167,12.785 67.167,15.700 67.099 C 18.615 67.031,16.230 66.975,10.400 66.975 C 4.570 66.975,2.185 67.031,5.100 67.099 M384.300 67.099 C 387.215 67.167,391.985 67.167,394.900 67.099 C 397.815 67.031,395.430 66.975,389.600 66.975 C 383.770 66.975,381.385 67.031,384.300 67.099 M377.867 68.267 C 377.415 68.718,377.548 188.000,378.000 188.000 C 378.265 188.000,378.400 167.733,378.400 128.000 C 378.400 95.000,378.340 68.000,378.267 68.000 C 378.193 68.000,378.013 68.120,377.867 68.267 M22.096 128.500 C 22.043 161.665,22.135 188.800,22.300 188.800 C 22.571 188.800,22.570 147.020,22.296 89.800 C 22.239 77.920,22.150 95.335,22.096 128.500 M66.800 149.920 L 67.000 188.200 67.102 150.222 C 67.158 129.334,67.068 112.108,66.902 111.942 C 66.736 111.776,66.690 128.866,66.800 149.920 M332.992 150.000 C 332.992 171.010,333.041 179.605,333.100 169.100 C 333.159 158.595,333.159 141.405,333.100 130.900 C 333.041 120.395,332.992 128.990,332.992 150.000 M266.347 144.936 C 266.689 145.348,266.780 156.685,266.704 189.107 C 266.647 213.096,266.735 232.640,266.900 232.538 C 267.600 232.105,267.246 144.903,266.543 144.634 C 266.020 144.433,265.980 144.494,266.347 144.936 M134.743 145.304 C 134.911 145.471,144.487 145.561,156.024 145.503 L 177.000 145.400 155.720 145.200 C 144.016 145.090,134.576 145.137,134.743 145.304 M177.600 188.424 C 177.600 220.042,177.479 231.972,177.160 231.775 C 176.851 231.584,176.855 231.756,177.174 232.352 C 177.424 232.818,177.847 233.197,178.114 233.194 C 178.419 233.190,178.377 233.044,178.000 232.800 C 177.595 232.538,177.563 232.410,177.903 232.406 C 178.305 232.401,178.405 223.533,178.396 188.600 C 178.390 160.187,178.248 144.800,177.993 144.800 C 177.738 144.800,177.600 160.119,177.600 188.424 M244.200 145.200 L 223.000 145.411 244.076 145.505 C 257.799 145.567,265.239 145.460,265.400 145.200 C 265.536 144.980,265.592 144.843,265.524 144.895 C 265.456 144.947,255.860 145.084,244.200 145.200 M132.993 189.200 C 132.993 213.290,133.041 223.145,133.100 211.100 C 133.159 199.055,133.159 179.345,133.100 167.300 C 133.041 155.255,132.993 165.110,132.993 189.200 M222.000 189.133 C 221.890 213.187,221.863 232.929,221.939 233.006 C 222.257 233.323,223.200 232.671,223.200 232.134 C 223.200 231.814,223.021 231.664,222.802 231.799 C 222.539 231.962,222.369 217.347,222.302 188.723 L 222.200 145.400 222.000 189.133 M21.043 189.433 C 20.615 190.547,20.764 210.400,21.200 210.400 C 21.457 210.400,21.600 206.533,21.600 199.600 C 21.600 189.078,21.547 188.118,21.043 189.433 M66.704 250.100 C 66.647 271.055,66.495 288.470,66.366 288.800 C 66.237 289.130,66.207 289.264,66.300 289.098 C 66.392 288.931,66.628 288.894,66.823 289.014 C 67.027 289.140,67.184 272.925,67.194 250.616 C 67.204 229.377,67.121 212.000,67.010 212.000 C 66.899 212.000,66.761 229.145,66.704 250.100 M332.900 250.200 C 332.857 271.320,332.951 288.808,333.111 289.062 C 333.372 289.480,333.355 237.967,333.087 219.400 C 333.027 215.220,332.943 229.080,332.900 250.200 M68.000 343.796 C 68.000 344.327,70.593 344.400,89.433 344.400 C 106.402 344.400,110.832 344.296,110.700 343.900 C 110.425 343.076,68.000 342.973,68.000 343.796 M289.379 343.566 C 289.503 343.767,289.379 344.023,289.102 344.134 C 288.826 344.246,298.815 344.351,311.300 344.368 C 332.002 344.397,335.475 344.252,333.367 343.443 C 332.317 343.040,289.128 343.161,289.379 343.566 M165.320 344.840 C 165.090 345.070,154.533 345.175,138.110 345.108 C 123.351 345.049,111.484 345.134,111.738 345.297 C 112.393 345.717,166.800 345.653,166.800 345.232 C 166.800 344.697,165.743 344.417,165.320 344.840 M233.738 345.300 C 233.498 345.688,287.652 345.682,288.262 345.294 C 288.516 345.132,276.394 345.000,261.324 345.000 C 246.254 345.000,233.840 345.135,233.738 345.300 M66.707 366.900 C 66.648 378.615,66.495 388.470,66.366 388.800 C 66.237 389.130,66.207 389.264,66.300 389.098 C 66.392 388.931,66.624 388.891,66.815 389.009 C 67.008 389.128,67.174 379.583,67.190 367.411 C 67.206 355.415,67.128 345.600,67.016 345.600 C 66.905 345.600,66.766 355.185,66.707 366.900 M332.895 367.000 C 332.858 378.880,332.956 388.808,333.114 389.063 C 333.376 389.486,333.349 359.441,333.079 349.600 C 333.015 347.290,332.933 355.120,332.895 367.000 " stroke="none" fill="#583c84" fill-rule="evenodd"></path><path id="path8" d="M144.600 21.200 C 144.754 21.450,148.671 21.600,155.024 21.600 C 161.541 21.600,165.200 21.456,165.200 21.200 C 165.200 20.944,161.459 20.800,154.776 20.800 C 147.929 20.800,144.438 20.937,144.600 21.200 M234.800 21.200 C 234.800 21.456,238.408 21.600,244.824 21.600 C 251.404 21.600,254.762 21.463,254.600 21.200 C 254.263 20.654,234.800 20.654,234.800 21.200 M255.696 44.204 C 255.601 65.952,255.609 66.213,256.414 66.716 C 257.362 67.308,289.370 67.399,289.005 66.808 C 288.890 66.621,288.931 66.392,289.098 66.300 C 289.264 66.207,289.130 66.237,288.800 66.366 C 287.713 66.790,256.603 66.631,256.566 66.200 C 256.546 65.980,256.411 65.530,256.265 65.200 C 256.119 64.870,255.953 55.060,255.896 43.400 L 255.793 22.200 255.696 44.204 M143.467 23.067 C 142.859 23.674,143.194 64.958,143.813 65.776 C 144.331 66.462,144.400 63.997,144.400 44.676 C 144.400 32.644,144.250 22.800,144.067 22.800 C 143.883 22.800,143.613 22.920,143.467 23.067 M111.944 66.905 C 112.112 67.072,119.348 67.162,128.025 67.104 L 143.800 67.000 127.720 66.800 C 118.876 66.690,111.777 66.737,111.944 66.905 M200.000 66.800 L 167.400 67.007 199.876 67.104 C 221.201 67.167,232.438 67.063,232.600 66.800 C 232.736 66.580,232.792 66.443,232.724 66.496 C 232.656 66.550,217.930 66.686,200.000 66.800 M5.100 67.099 C 8.015 67.167,12.785 67.167,15.700 67.099 C 18.615 67.031,16.230 66.975,10.400 66.975 C 4.570 66.975,2.185 67.031,5.100 67.099 M384.300 67.099 C 387.215 67.167,391.985 67.167,394.900 67.099 C 397.815 67.031,395.430 66.975,389.600 66.975 C 383.770 66.975,381.385 67.031,384.300 67.099 M377.867 68.267 C 377.415 68.718,377.548 188.000,378.000 188.000 C 378.265 188.000,378.400 167.733,378.400 128.000 C 378.400 95.000,378.340 68.000,378.267 68.000 C 378.193 68.000,378.013 68.120,377.867 68.267 M22.096 128.500 C 22.043 161.665,22.135 188.800,22.300 188.800 C 22.571 188.800,22.570 147.020,22.296 89.800 C 22.239 77.920,22.150 95.335,22.096 128.500 M66.800 149.920 L 67.000 188.200 67.102 150.222 C 67.158 129.334,67.068 112.108,66.902 111.942 C 66.736 111.776,66.690 128.866,66.800 149.920 M332.992 150.000 C 332.992 171.010,333.041 179.605,333.100 169.100 C 333.159 158.595,333.159 141.405,333.100 130.900 C 333.041 120.395,332.992 128.990,332.992 150.000 M266.347 144.936 C 266.689 145.348,266.780 156.685,266.704 189.107 C 266.647 213.096,266.735 232.640,266.900 232.538 C 267.600 232.105,267.246 144.903,266.543 144.634 C 266.020 144.433,265.980 144.494,266.347 144.936 M134.743 145.304 C 134.911 145.471,144.487 145.561,156.024 145.503 L 177.000 145.400 155.720 145.200 C 144.016 145.090,134.576 145.137,134.743 145.304 M177.600 188.424 C 177.600 220.042,177.479 231.972,177.160 231.775 C 176.851 231.584,176.855 231.756,177.174 232.352 C 177.424 232.818,177.847 233.197,178.114 233.194 C 178.419 233.190,178.377 233.044,178.000 232.800 C 177.595 232.538,177.563 232.410,177.903 232.406 C 178.305 232.401,178.405 223.533,178.396 188.600 C 178.390 160.187,178.248 144.800,177.993 144.800 C 177.738 144.800,177.600 160.119,177.600 188.424 M244.200 145.200 L 223.000 145.411 244.076 145.505 C 257.799 145.567,265.239 145.460,265.400 145.200 C 265.536 144.980,265.592 144.843,265.524 144.895 C 265.456 144.947,255.860 145.084,244.200 145.200 M132.993 189.200 C 132.993 213.290,133.041 223.145,133.100 211.100 C 133.159 199.055,133.159 179.345,133.100 167.300 C 133.041 155.255,132.993 165.110,132.993 189.200 M222.000 189.133 C 221.890 213.187,221.863 232.929,221.939 233.006 C 222.257 233.323,223.200 232.671,223.200 232.134 C 223.200 231.814,223.021 231.664,222.802 231.799 C 222.539 231.962,222.369 217.347,222.302 188.723 L 222.200 145.400 222.000 189.133 M21.043 189.433 C 20.615 190.547,20.764 210.400,21.200 210.400 C 21.457 210.400,21.600 206.533,21.600 199.600 C 21.600 189.078,21.547 188.118,21.043 189.433 M66.704 250.100 C 66.647 271.055,66.495 288.470,66.366 288.800 C 66.237 289.130,66.207 289.264,66.300 289.098 C 66.392 288.931,66.628 288.894,66.823 289.014 C 67.027 289.140,67.184 272.925,67.194 250.616 C 67.204 229.377,67.121 212.000,67.010 212.000 C 66.899 212.000,66.761 229.145,66.704 250.100 M332.900 250.200 C 332.857 271.320,332.951 288.808,333.111 289.062 C 333.372 289.480,333.355 237.967,333.087 219.400 C 333.027 215.220,332.943 229.080,332.900 250.200 M68.000 343.796 C 68.000 344.327,70.593 344.400,89.433 344.400 C 106.402 344.400,110.832 344.296,110.700 343.900 C 110.425 343.076,68.000 342.973,68.000 343.796 M289.379 343.566 C 289.503 343.767,289.379 344.023,289.102 344.134 C 288.826 344.246,298.815 344.351,311.300 344.368 C 332.002 344.397,335.475 344.252,333.367 343.443 C 332.317 343.040,289.128 343.161,289.379 343.566 M165.320 344.840 C 165.090 345.070,154.533 345.175,138.110 345.108 C 123.351 345.049,111.484 345.134,111.738 345.297 C 112.393 345.717,166.800 345.653,166.800 345.232 C 166.800 344.697,165.743 344.417,165.320 344.840 M233.738 345.300 C 233.498 345.688,287.652 345.682,288.262 345.294 C 288.516 345.132,276.394 345.000,261.324 345.000 C 246.254 345.000,233.840 345.135,233.738 345.300 M66.707 366.900 C 66.648 378.615,66.495 388.470,66.366 388.800 C 66.237 389.130,66.207 389.264,66.300 389.098 C 66.392 388.931,66.624 388.891,66.815 389.009 C 67.008 389.128,67.174 379.583,67.190 367.411 C 67.206 355.415,67.128 345.600,67.016 345.600 C 66.905 345.600,66.766 355.185,66.707 366.900 M332.895 367.000 C 332.858 378.880,332.956 388.808,333.114 389.063 C 333.376 389.486,333.349 359.441,333.079 349.600 C 333.015 347.290,332.933 355.120,332.895 367.000 " stroke="none" fill="#583c84" fill-rule="evenodd"></path></g></svg>